<svg width="260" height="72" viewBox="0 0 260 72" fill="none" xmlns="http://www.w3.org/2000/svg" role="img" aria-labelledby="title desc">
  <title id="title">Herbal Care logo</title>
  <desc id="desc">A green herbal leaf mark with Herbal Care text.</desc>
  <rect width="260" height="72" rx="20" fill="#052e1b"/>
  <circle cx="38" cy="36" r="22" fill="#f5d76e"/>
  <path d="M39.3 51.5C33 43.5 29.8 35.2 31 27.4C32.3 19.6 38.3 14.2 48.9 11.2C51.6 22.1 50.6 31.1 45.9 38.2C43.8 41.3 41.1 43.9 37.8 46" fill="#0f7a3a"/>
  <path d="M38.1 51.8C39.9 43.9 38.7 36.5 34.6 29.5C30.5 22.5 23.8 18 14.6 16C13.4 27.2 15.9 35.8 22.1 41.8C26.5 46 31.8 48.7 38.1 49.9" fill="#2aa65a"/>
  <path d="M39 51C39 38.6 41.9 28.2 47.8 19.9" stroke="#f7f4df" stroke-width="3" stroke-linecap="round"/>
  <path d="M38.8 50.9C33.6 39.6 27 30.7 19 24.1" stroke="#f7f4df" stroke-width="3" stroke-linecap="round"/>
  <text x="76" y="34" fill="#f7f4df" font-family="Arial, Helvetica, sans-serif" font-size="24" font-weight="700">Herbal Care</text>
  <text x="77" y="53" fill="#b7e4c7" font-family="Arial, Helvetica, sans-serif" font-size="12" font-weight="600">natural health education</text>
</svg>
